#format: frame checksums
#version: 2
#hash: MD5
#tb 0: 1001/30000
#media_type 0: video
#codec_id 0: rawvideo
#dimensions 0: 8x18
#sar 0: 1/1
#stream#, dts,        pts, duration,     size, hash
0,          0,          0,        1,      216, 4c41f93b1b280b37bc77d7047435eaa4
0,          1,          1,        1,      216, c9c80fdba2ebc2b8c3490ae35e34f84f
0,          2,          2,        1,      216, 089d86acb3263fa5ef4f591a7f44556d
0,          3,          3,        1,      216, 938fca6d93b83484144f5054e4838a41
0,          4,          4,        1,      216, e0592e2ac9f5e09525ce0d3904cadf47
0,          5,          5,        1,      216, ea43ff5d1330986e60c08567262ea764
0,          6,          6,        1,      216, 08b40fe109ee90188f1cba9bbb1b376e
0,          7,          7,        1,      216, b067068a2a7e36d5c5b5b405a1e73a18
0,          8,          8,        1,      216, 9cf2d350296288803434b7451bd2be85
0,          9,          9,        1,      216, 3c785e21dc228d6396738fbfcb470289
